<mxfile host="app.diagrams.net" modified="2024-04-10T00:54:48.235Z" agent="Mozilla/5.0 (Windows NT 10.0; Win64; x64) AppleWebKit/537.36 (KHTML, like Gecko) Chrome/123.0.0.0 Safari/537.36 Edg/123.0.0.0" etag="qgNpM9wu0SkSPky27UtW" version="24.2.3" type="device">
  <diagram name="Page-1" id="zUEmeMqHq53Iq8tT1NE1">
    <mxGraphModel dx="772" dy="410" grid="1" gridSize="10" guides="1" tooltips="1" connect="1" arrows="1" fold="1" page="1" pageScale="1" pageWidth="850" pageHeight="1100" math="0" shadow="0">
      <root>
        <mxCell id="0" />
        <mxCell id="1" parent="0" />
        <mxCell id="9NDzH3zKGJGrz_eoLe-b-2" value="Hotel Admin" style="swimlane;whiteSpace=wrap;html=1;" vertex="1" parent="1">
          <mxGeometry x="180" y="100" width="200" height="410" as="geometry" />
        </mxCell>
        <mxCell id="9NDzH3zKGJGrz_eoLe-b-4" value="View all customers" style="ellipse;whiteSpace=wrap;html=1;" vertex="1" parent="9NDzH3zKGJGrz_eoLe-b-2">
          <mxGeometry x="50" y="40" width="100" height="70" as="geometry" />
        </mxCell>
        <mxCell id="9NDzH3zKGJGrz_eoLe-b-5" value="View all rooms" style="ellipse;whiteSpace=wrap;html=1;" vertex="1" parent="9NDzH3zKGJGrz_eoLe-b-2">
          <mxGeometry x="50" y="130" width="100" height="70" as="geometry" />
        </mxCell>
        <mxCell id="9NDzH3zKGJGrz_eoLe-b-6" value="View all reservations" style="ellipse;whiteSpace=wrap;html=1;" vertex="1" parent="9NDzH3zKGJGrz_eoLe-b-2">
          <mxGeometry x="50" y="220" width="100" height="70" as="geometry" />
        </mxCell>
        <mxCell id="9NDzH3zKGJGrz_eoLe-b-7" value="Add new rooms" style="ellipse;whiteSpace=wrap;html=1;" vertex="1" parent="9NDzH3zKGJGrz_eoLe-b-2">
          <mxGeometry x="50" y="310" width="100" height="70" as="geometry" />
        </mxCell>
        <mxCell id="9NDzH3zKGJGrz_eoLe-b-9" value="" style="endArrow=none;html=1;rounded=0;entryX=0;entryY=0.5;entryDx=0;entryDy=0;" edge="1" parent="9NDzH3zKGJGrz_eoLe-b-2" target="9NDzH3zKGJGrz_eoLe-b-5">
          <mxGeometry width="50" height="50" relative="1" as="geometry">
            <mxPoint x="-60" y="200" as="sourcePoint" />
            <mxPoint x="60" y="95" as="targetPoint" />
          </mxGeometry>
        </mxCell>
        <mxCell id="9NDzH3zKGJGrz_eoLe-b-10" value="" style="endArrow=none;html=1;rounded=0;entryX=0;entryY=0.5;entryDx=0;entryDy=0;" edge="1" parent="9NDzH3zKGJGrz_eoLe-b-2" target="9NDzH3zKGJGrz_eoLe-b-6">
          <mxGeometry width="50" height="50" relative="1" as="geometry">
            <mxPoint x="-60" y="220" as="sourcePoint" />
            <mxPoint x="50" y="185" as="targetPoint" />
          </mxGeometry>
        </mxCell>
        <mxCell id="9NDzH3zKGJGrz_eoLe-b-11" value="" style="endArrow=none;html=1;rounded=0;entryX=0;entryY=0.5;entryDx=0;entryDy=0;" edge="1" parent="9NDzH3zKGJGrz_eoLe-b-2" target="9NDzH3zKGJGrz_eoLe-b-7">
          <mxGeometry width="50" height="50" relative="1" as="geometry">
            <mxPoint x="-70" y="270" as="sourcePoint" />
            <mxPoint x="40" y="305" as="targetPoint" />
          </mxGeometry>
        </mxCell>
        <mxCell id="9NDzH3zKGJGrz_eoLe-b-3" value="Manager" style="shape=umlActor;verticalLabelPosition=bottom;verticalAlign=top;html=1;outlineConnect=0;" vertex="1" parent="1">
          <mxGeometry x="80" y="280" width="30" height="60" as="geometry" />
        </mxCell>
        <mxCell id="9NDzH3zKGJGrz_eoLe-b-8" value="" style="endArrow=none;html=1;rounded=0;entryX=0;entryY=0.5;entryDx=0;entryDy=0;" edge="1" parent="1" target="9NDzH3zKGJGrz_eoLe-b-4">
          <mxGeometry width="50" height="50" relative="1" as="geometry">
            <mxPoint x="110" y="280" as="sourcePoint" />
            <mxPoint x="160" y="230" as="targetPoint" />
          </mxGeometry>
        </mxCell>
        <mxCell id="9NDzH3zKGJGrz_eoLe-b-12" value="Hotel Clerk" style="shape=umlActor;verticalLabelPosition=bottom;verticalAlign=top;html=1;outlineConnect=0;" vertex="1" parent="1">
          <mxGeometry x="520" y="280" width="30" height="60" as="geometry" />
        </mxCell>
        <mxCell id="9NDzH3zKGJGrz_eoLe-b-13" value="Hotel Front Desk" style="swimlane;whiteSpace=wrap;html=1;" vertex="1" parent="1">
          <mxGeometry x="620" y="100" width="200" height="320" as="geometry" />
        </mxCell>
        <mxCell id="9NDzH3zKGJGrz_eoLe-b-14" value="Add new reservation" style="ellipse;whiteSpace=wrap;html=1;" vertex="1" parent="9NDzH3zKGJGrz_eoLe-b-13">
          <mxGeometry x="50" y="40" width="100" height="70" as="geometry" />
        </mxCell>
        <mxCell id="9NDzH3zKGJGrz_eoLe-b-15" value="Add new customers" style="ellipse;whiteSpace=wrap;html=1;" vertex="1" parent="9NDzH3zKGJGrz_eoLe-b-13">
          <mxGeometry x="50" y="130" width="100" height="70" as="geometry" />
        </mxCell>
        <mxCell id="9NDzH3zKGJGrz_eoLe-b-16" value="Lookup reservations by customer" style="ellipse;whiteSpace=wrap;html=1;" vertex="1" parent="9NDzH3zKGJGrz_eoLe-b-13">
          <mxGeometry x="50" y="220" width="100" height="70" as="geometry" />
        </mxCell>
        <mxCell id="9NDzH3zKGJGrz_eoLe-b-18" value="" style="endArrow=none;html=1;rounded=0;entryX=0;entryY=0.5;entryDx=0;entryDy=0;" edge="1" parent="9NDzH3zKGJGrz_eoLe-b-13" target="9NDzH3zKGJGrz_eoLe-b-15">
          <mxGeometry width="50" height="50" relative="1" as="geometry">
            <mxPoint x="-60" y="200" as="sourcePoint" />
            <mxPoint x="60" y="95" as="targetPoint" />
          </mxGeometry>
        </mxCell>
        <mxCell id="9NDzH3zKGJGrz_eoLe-b-19" value="" style="endArrow=none;html=1;rounded=0;entryX=0;entryY=0.5;entryDx=0;entryDy=0;" edge="1" parent="9NDzH3zKGJGrz_eoLe-b-13" target="9NDzH3zKGJGrz_eoLe-b-16">
          <mxGeometry width="50" height="50" relative="1" as="geometry">
            <mxPoint x="-60" y="220" as="sourcePoint" />
            <mxPoint x="50" y="185" as="targetPoint" />
          </mxGeometry>
        </mxCell>
        <mxCell id="9NDzH3zKGJGrz_eoLe-b-21" value="" style="endArrow=none;html=1;rounded=0;entryX=0;entryY=0.5;entryDx=0;entryDy=0;" edge="1" parent="9NDzH3zKGJGrz_eoLe-b-13">
          <mxGeometry width="50" height="50" relative="1" as="geometry">
            <mxPoint x="-70" y="175" as="sourcePoint" />
            <mxPoint x="50" y="70" as="targetPoint" />
          </mxGeometry>
        </mxCell>
      </root>
    </mxGraphModel>
  </diagram>
</mxfile>
